<svg viewBox="0 -40 880 292" xmlns="http://www.w3.org/2000/svg" font-family="-apple-system, 'Segoe UI', Helvetica, Arial, sans-serif">
  <style>
    .title { font-size: 11px; font-weight: 700; fill: #273036; }
    .chip { font-size: 10px; font-weight: 600; fill: #273036; }
    .sub { font-size: 9.5px; fill: #9ca3af; }
    .rail { font-size: 9.5px; font-weight: 700; letter-spacing: .07em; fill: #8a8f98; }
    .mono { font-family: ui-monospace, SFMono-Regular, Menlo, monospace; }
    .flow { stroke: #8e8e93; stroke-width: 1.6; fill: none; marker-end: url(#arrslice); }
    .spoke { stroke: #d4d4da; stroke-width: 1; fill: none; }
  </style>
  <defs>
    <marker id="arrslice" markerWidth="8" markerHeight="8" refX="6" refY="3" orient="auto">
      <path d="M0,0 L7,3 L0,6 Z" fill="#8e8e93"/>
    </marker>
  </defs>

  <rect x="0" y="-40" width="880" height="292" rx="14" fill="#eef1f5" stroke="#e2e4e9"/>

  <text x="16" y="-14" font-size="15" font-weight="700" fill="#273036">How to use <tspan class="mono">sb:slice</tspan></text>

  <text x="24" y="10" class="rail">THE WHOLE BLUEPRINT</text>
  <rect x="16" y="18" width="340" height="210" rx="10" fill="#ffffff" stroke="#c9ccd4" stroke-width="1.3"/>
  <rect x="44" y="32" width="284" height="26" rx="13" fill="#ffffff" stroke="#d4b483"/>
  <text x="186" y="49" class="sub" font-size="9" text-anchor="middle" fill="#6b7280">what does this stakeholder need to see?</text>
  <g opacity="0.7">
    <rect x="44" y="72" width="284" height="35" fill="#e8f3ed"/>
    <rect x="44" y="107" width="284" height="35" fill="#fdf1e3"/>
    <rect x="44" y="142" width="284" height="35" fill="#fbe9f0"/>
    <rect x="44" y="177" width="284" height="35" fill="#ecebf5"/>
    <rect x="44" y="72" width="284" height="140" fill="none" stroke="#d4d4da"/>
    <line x1="115" y1="72" x2="115" y2="212" stroke="#e2e4e9"/>
    <line x1="186" y1="72" x2="186" y2="212" stroke="#e2e4e9"/>
    <line x1="257" y1="72" x2="257" y2="212" stroke="#e2e4e9"/>
  </g>
  <rect x="57.5" y="81.625" width="44" height="15.75" rx="2" fill="#ffffff" stroke="#d4d4da"/>
  <rect x="199.5" y="81.625" width="44" height="15.75" rx="2" fill="#ffffff" stroke="#d4d4da"/>
  <rect x="128.5" y="116.625" width="44" height="15.75" rx="2" fill="#ffffff" stroke="#d4d4da"/>
  <rect x="270.5" y="116.625" width="44" height="15.75" rx="2" fill="#ffffff" stroke="#d4d4da"/>
  <rect x="57.5" y="151.625" width="44" height="15.75" rx="2" fill="#ffffff" stroke="#d4d4da"/>
  <rect x="199.5" y="151.625" width="44" height="15.75" rx="2" fill="#ffffff" stroke="#d4d4da"/>
  <rect x="128.5" y="186.625" width="44" height="15.75" rx="2" fill="#ffffff" stroke="#d4d4da"/>
  <rect x="270.5" y="186.625" width="44" height="15.75" rx="2" fill="#ffffff" stroke="#d4d4da"/>
  <path class="flow" d="M356,123 L518,123"/>
  <rect x="365" y="96" width="150" height="54" rx="14" fill="#fdf1e3" stroke="#d4b483" stroke-width="1.4"/>
  <text x="440" y="118" class="title mono" text-anchor="middle">sb:slice</text>
  <text x="440" y="134" class="sub" text-anchor="middle" fill="#6b7280">take the view you need</text>

  <text x="532" y="10" class="rail">ONE DOCUMENT PER SLICE</text>
  <rect x="524" y="18" width="340" height="210" rx="10" fill="#ffffff" stroke="#c9ccd4" stroke-width="1.3"/>
  <rect x="636" y="28" width="116" height="56" rx="8" fill="#ffffff" stroke="#c9ccd4"/>
  <rect x="648" y="37" width="26" height="3" rx="1.5" fill="#d4d4da"/>
  <line x1="650" y1="55" x2="738" y2="55" stroke="#e2e4e9"/>
  <rect x="650" y="48" width="18" height="14" rx="2" fill="#ffffff" stroke="#9aadbe"/>
  <rect x="673" y="48" width="18" height="14" rx="2" fill="#ffffff" stroke="#9aadbe"/>
  <rect x="696" y="48" width="18" height="14" rx="2" fill="#ffffff" stroke="#9aadbe"/>
  <rect x="719" y="48" width="18" height="14" rx="2" fill="#ffffff" stroke="#9aadbe"/>
  <text x="694" y="78" class="chip mono" font-size="10" text-anchor="middle">journey</text>
  <rect x="540" y="94" width="116" height="56" rx="8" fill="#ffffff" stroke="#c9ccd4"/>
  <rect x="552" y="103" width="26" height="3" rx="1.5" fill="#d4d4da"/>
  <rect x="554" y="116" width="88" height="10" rx="2" fill="#ffffff" stroke="#9aadbe"/>
  <line x1="576" y1="116" x2="576" y2="126" stroke="#e2e4e9"/>
  <line x1="598" y1="116" x2="598" y2="126" stroke="#e2e4e9"/>
  <line x1="620" y1="116" x2="620" y2="126" stroke="#e2e4e9"/>
  <text x="598" y="144" class="chip mono" font-size="10" text-anchor="middle">lane</text>
  <rect x="732" y="94" width="116" height="56" rx="8" fill="#ffffff" stroke="#c9ccd4"/>
  <rect x="744" y="103" width="26" height="3" rx="1.5" fill="#d4d4da"/>
  <rect x="780" y="112" width="20" height="4" rx="1.5" fill="#ffffff" stroke="#9aadbe"/>
  <rect x="780" y="117" width="20" height="4" rx="1.5" fill="#ffffff" stroke="#9aadbe"/>
  <rect x="780" y="122" width="20" height="4" rx="1.5" fill="#ffffff" stroke="#9aadbe"/>
  <rect x="780" y="127" width="20" height="4" rx="1.5" fill="#ffffff" stroke="#9aadbe"/>
  <text x="790" y="144" class="chip mono" font-size="10" text-anchor="middle">step</text>
  <rect x="575" y="160" width="116" height="56" rx="8" fill="#ffffff" stroke="#c9ccd4"/>
  <rect x="587" y="169" width="26" height="3" rx="1.5" fill="#d4d4da"/>
  <rect x="589" y="178" width="24" height="18" rx="3" fill="#ffffff" stroke="#9aadbe"/>
  <rect x="619" y="180" width="54" height="4" rx="2" fill="#eceef2"/>
  <rect x="619" y="188" width="40" height="4" rx="2" fill="#eceef2"/>
  <text x="633" y="210" class="chip mono" font-size="10" text-anchor="middle">cell</text>
  <rect x="697" y="160" width="116" height="56" rx="8" fill="#ffffff" stroke="#c9ccd4"/>
  <rect x="709" y="169" width="26" height="3" rx="1.5" fill="#d4d4da"/>
  <path d="M713,192 L731,180 L755,194 L777,179 L797,188" fill="none" stroke="#9aadbe" stroke-width="1.5" stroke-dasharray="4 3"/>
  <text x="755" y="210" class="chip mono" font-size="10" text-anchor="middle">custom</text>
</svg>
